<?xml version="1.0" standalone="no"?>
<!DOCTYPE svg PUBLIC "-//W3C//DTD SVG 20010904//EN"
 "http://www.w3.org/TR/2001/REC-SVG-20010904/DTD/svg10.dtd">
<svg version="1.0" xmlns="http://www.w3.org/2000/svg"
 width="300.000000pt" height="300.000000pt" viewBox="0 0 300.000000 300.000000"
 preserveAspectRatio="xMidYMid meet">
<metadata>
Created by potrace 1.10, written by Peter Selinger 2001-2011
</metadata>
<g transform="translate(0.000000,300.000000) scale(0.100000,-0.100000)"
fill="#000000" stroke="none">
<path d="M2048 2142 l4 -29 -56 5 -56 4 0 -31 c0 -27 -3 -31 -29 -31 -25 0
-28 -3 -23 -25 4 -22 1 -25 -27 -25 -26 0 -31 -4 -31 -25 0 -20 -5 -25 -25
-25 -21 0 -25 -5 -25 -30 0 -26 -3 -30 -29 -30 -25 0 -28 -3 -23 -25 4 -22 1
-25 -27 -25 -26 0 -31 -4 -31 -25 0 -20 -5 -25 -25 -25 -21 0 -25 -5 -25 -30
0 -26 -3 -30 -29 -30 -25 0 -28 -3 -23 -25 4 -22 1 -25 -27 -25 -26 0 -31 -4
-31 -25 0 -20 -5 -25 -25 -25 -21 0 -25 -5 -25 -31 l0 -30 -52 2 c-50 3 -53 2
-53 -21 0 -23 4 -25 53 -28 50 -3 52 -2 52 22 0 21 5 26 25 26 21 0 25 5 25
30 0 27 3 30 30 30 25 0 30 4 30 25 0 20 5 25 25 25 20 0 25 5 25 25 0 20 5
25 25 25 21 0 25 5 25 30 0 27 3 30 30 30 25 0 30 4 30 25 0 20 5 25 25 25 20
0 25 5 25 25 0 20 5 25 25 25 21 0 25 5 25 30 0 27 3 30 30 30 25 0 30 4 30
25 0 20 5 25 25 25 20 0 25 5 25 25 0 20 5 25 28 26 72 3 76 4 82 29 l6 25
284 0 285 0 3 -27 c3 -22 9 -28 27 -28 16 0 26 -7 31 -22 4 -13 11 -26 17 -29
6 -4 7 -15 2 -25 -8 -17 -9 -17 -12 4 -4 22 -6 22 -169 22 l-164 0 0 -25 c0
-23 -3 -25 -49 -25 -47 0 -50 -2 -53 -27 -2 -22 -9 -29 -30 -31 -22 -3 -28 -9
-28 -28 0 -20 5 -24 30 -24 26 0 30 4 30 28 0 22 4 27 25 27 23 0 25 -3 25
-52 0 -50 -2 -53 -25 -53 -24 0 -25 -3 -25 -55 0 -55 0 -55 -31 -55 -24 0 -30
-3 -25 -16 3 -9 6 -20 6 -25 0 -5 11 -9 25 -9 20 0 25 5 25 25 0 20 5 25 25
25 24 0 25 3 25 55 0 53 1 55 28 55 l27 0 -3 80 -4 80 56 0 56 0 0 -80 c0 -79
0 -80 -25 -80 -24 0 -25 -3 -25 -55 0 -54 0 -55 -30 -55 -16 0 -30 -4 -30 -9
0 -25 14 -41 36 -41 19 0 24 5 24 25 0 20 5 25 25 25 24 0 25 3 25 55 0 53 1
55 28 55 l27 0 -3 80 -4 80 31 0 31 0 0 -110 0 -110 -31 0 c-24 0 -30 -3 -25
-16 3 -9 6 -31 6 -50 0 -30 3 -34 25 -34 24 0 25 -3 25 -55 0 -54 0 -55 -30
-55 -16 0 -30 -4 -30 -9 0 -25 14 -41 36 -41 19 0 24 5 24 25 0 20 5 25 25 25
24 0 25 3 25 55 0 55 0 55 31 55 24 0 30 3 25 16 -3 9 -6 31 -6 50 0 30 -3 34
-25 34 l-25 0 0 110 0 110 30 0 30 0 0 -110 0 -110 25 0 25 0 0 160 0 160 -31
0 c-27 0 -30 3 -27 28 3 24 0 27 -24 27 -24 -1 -28 3 -28 27 l0 28 -293 0
-294 0 5 -28z m582 -452 c0 -47 -2 -50 -25 -50 -23 0 -25 3 -25 50 0 47 2 50
25 50 23 0 25 -3 25 -50z"/>
<path d="M340 1795 c0 -52 1 -55 25 -55 21 0 25 5 25 30 l0 30 110 0 110 0 0
-30 c0 -25 4 -30 25 -30 20 0 25 -5 25 -25 0 -20 5 -25 25 -25 20 0 25 -5 25
-25 0 -24 3 -25 54 -25 49 0 55 2 58 23 3 21 7 22 136 25 133 3 133 3 130 -20
-2 -14 -12 -24 -28 -28 -14 -3 -27 -14 -29 -25 -5 -27 -19 -35 -63 -35 -30 0
-37 -4 -40 -22 -2 -15 -11 -24 -25 -26 -13 -2 -23 -11 -24 -20 -4 -87 -5 -86
21 -92 16 -4 26 -14 28 -28 3 -21 8 -22 108 -22 l104 0 0 25 c0 26 5 28 75 29
25 1 31 5 33 29 3 26 6 27 55 27 48 0 52 2 53 25 2 24 -1 25 -52 25 -51 0 -54
-1 -54 -25 0 -24 -3 -25 -55 -25 -54 0 -55 0 -55 -30 l0 -30 -105 0 -105 0 0
55 0 55 53 0 54 0 -5 30 c-4 29 -3 30 27 24 29 -6 31 -5 31 25 0 26 4 31 25
31 23 0 25 3 25 53 l0 52 -160 0 -160 0 0 -27 c0 -27 -2 -28 -56 -28 -55 0
-55 0 -52 28 3 24 0 27 -24 24 -25 -3 -28 0 -28 27 0 26 -4 31 -25 31 -20 0
-25 5 -25 25 l0 25 -135 0 -135 0 0 -55z"/>
<path d="M1890 1795 c0 -49 2 -55 21 -55 11 0 29 -5 40 -10 27 -15 59 4 59 36
0 14 -4 22 -10 19 -5 -3 -10 -15 -10 -26 0 -14 -7 -19 -25 -19 -21 0 -25 5
-25 30 0 26 3 30 29 30 25 0 28 3 23 25 -4 23 -9 25 -53 25 l-49 0 0 -55z"/>
<path d="M2150 1825 c0 -20 -5 -25 -24 -25 -19 0 -25 -6 -28 -27 -2 -22 -9
-29 -29 -31 -21 -2 -26 -9 -26 -28 0 -20 4 -24 28 -24 25 0 29 4 29 29 0 25 3
28 25 23 22 -4 25 -1 25 27 0 28 3 31 31 31 24 0 30 3 25 16 -3 9 -6 20 -6 25
0 5 -11 9 -25 9 -20 0 -25 -5 -25 -25z"/>
<path d="M396 1724 c-11 -28 -7 -34 24 -34 25 0 30 -4 30 -25 0 -20 5 -25 25
-25 21 0 25 -5 25 -31 0 -27 3 -30 28 -27 24 3 27 0 24 -24 -3 -25 0 -28 27
-28 26 0 31 -4 31 -25 0 -20 5 -25 25 -25 24 0 25 -3 25 -55 0 -54 1 -55 29
-55 25 0 28 -3 23 -25 -4 -22 -1 -25 27 -25 28 0 31 -3 31 -31 0 -26 3 -30 23
-27 16 2 23 11 25 31 3 23 0 27 -22 27 -21 0 -26 5 -26 24 0 19 -6 25 -27 28
-26 3 -28 7 -31 56 -3 48 -5 52 -28 52 -19 0 -24 5 -24 25 0 20 -5 25 -25 25
-20 0 -25 5 -25 25 0 20 -5 25 -25 25 -20 0 -27 6 -31 30 -5 23 -12 30 -30 30
-19 0 -24 5 -24 25 0 20 -5 25 -25 25 -20 0 -25 5 -25 25 0 20 -5 25 -24 25
-13 0 -27 -7 -30 -16z"/>
<path d="M1990 1666 c0 -23 -4 -25 -52 -28 -46 -3 -51 -6 -55 -27 -4 -29 -28
-58 -54 -66 -16 -5 -19 -16 -19 -60 0 -54 10 -74 50 -95 13 -7 20 -6 24 6 9
23 0 32 -29 26 -24 -4 -25 -3 -25 52 0 56 0 56 30 56 27 0 30 2 24 25 -6 24
-5 25 50 25 56 0 56 0 56 30 0 27 3 30 30 30 17 0 30 4 30 9 0 25 -14 41 -36
41 -19 0 -24 -5 -24 -24z"/>
<path d="M2150 1609 c0 -28 -3 -31 -25 -27 -22 5 -25 2 -25 -23 0 -25 -4 -29
-29 -29 -25 0 -28 -3 -23 -25 4 -22 1 -25 -27 -25 -29 0 -32 -3 -29 -27 2 -22
8 -28 28 -28 20 0 26 6 28 28 3 21 9 27 28 27 19 0 24 5 24 25 0 20 5 25 25
25 20 0 25 5 25 25 0 20 5 25 24 25 30 0 40 13 31 40 -4 13 -15 20 -31 20 -20
0 -24 -5 -24 -31z"/>
<path d="M2310 1609 c0 -28 -3 -31 -25 -27 -22 5 -25 2 -25 -23 0 -26 -4 -29
-30 -29 -27 0 -30 -2 -24 -25 6 -23 3 -25 -25 -25 -28 0 -31 -3 -31 -31 0 -28
-3 -31 -25 -27 -22 5 -25 2 -25 -23 0 -25 -4 -29 -29 -29 -25 0 -28 -3 -23
-25 4 -22 1 -25 -27 -25 -29 0 -32 -3 -29 -27 2 -22 8 -28 28 -28 20 0 26 6
28 28 3 21 9 27 28 27 19 0 24 5 24 25 0 20 5 25 25 25 20 0 25 5 25 24 0 19
6 25 28 28 21 2 27 8 27 28 0 20 6 26 28 28 21 3 27 9 27 28 0 19 5 24 25 24
20 0 25 5 25 25 0 20 5 25 24 25 30 0 37 9 29 38 -3 15 -13 22 -29 22 -20 0
-24 -5 -24 -31z"/>
<path d="M2470 1609 c0 -28 -3 -31 -25 -27 -22 5 -25 2 -25 -23 0 -26 -4 -29
-30 -29 -16 0 -30 -4 -30 -9 0 -25 14 -41 36 -41 19 0 24 5 24 25 0 20 5 25
25 25 20 0 25 5 25 25 0 20 5 25 24 25 30 0 37 9 29 38 -3 15 -13 22 -29 22
-20 0 -24 -5 -24 -31z"/>
<path d="M821 1523 c-1 -37 2 -43 20 -43 16 0 19 3 12 13 -6 6 -15 26 -21 42
-10 30 -10 30 -11 -12z"/>
<path d="M2310 1449 c0 -28 -3 -31 -25 -27 -22 5 -25 2 -25 -23 0 -26 -4 -29
-31 -29 -24 0 -30 -3 -25 -16 3 -9 6 -20 6 -25 0 -5 11 -9 25 -9 20 0 25 5 25
25 0 20 5 25 25 25 20 0 25 5 25 25 0 20 5 25 24 25 30 0 37 9 29 38 -3 15
-13 22 -29 22 -20 0 -24 -5 -24 -31z"/>
<path d="M2470 1449 c0 -28 -3 -31 -25 -27 -22 5 -25 2 -25 -23 0 -26 -4 -29
-30 -29 -27 0 -30 -2 -24 -25 6 -23 3 -25 -25 -25 -28 0 -31 -3 -31 -31 0 -28
-3 -31 -25 -27 -22 5 -25 2 -25 -23 0 -26 -4 -29 -31 -29 -24 0 -30 -3 -25
-16 3 -9 6 -20 6 -25 0 -5 11 -9 25 -9 20 0 25 5 25 25 0 20 5 25 25 25 18 0
25 5 25 18 0 10 11 28 24 39 28 25 36 15 36 -42 0 -49 -9 -65 -36 -65 -22 0
-24 -4 -24 -55 0 -53 -1 -55 -27 -55 -27 0 -28 -1 -25 -50 2 -27 8 -50 12 -50
5 0 15 -3 24 -6 13 -5 16 3 16 50 0 55 0 56 29 56 l30 0 -6 55 -6 55 32 0 31
0 0 105 0 105 25 0 c20 0 25 5 25 25 0 20 5 25 24 25 30 0 37 9 29 38 -3 15
-13 22 -29 22 -20 0 -24 -5 -24 -31z"/>
<path d="M1940 1399 c0 -25 -4 -29 -29 -29 -24 0 -28 -4 -28 -25 0 -21 4 -25
28 -25 24 0 29 4 29 25 0 20 5 25 25 25 20 0 25 5 25 24 0 17 -7 25 -25 28
-22 5 -25 2 -25 -23z"/>
<path d="M2150 1289 c0 -28 -3 -31 -25 -27 -22 5 -25 2 -25 -23 0 -25 -4 -29
-29 -29 -25 0 -28 -3 -23 -25 4 -22 1 -25 -27 -25 -29 0 -32 -3 -29 -27 2 -22
8 -28 28 -28 20 0 26 6 28 28 3 21 9 27 28 27 19 0 24 5 24 25 0 20 5 25 25
25 20 0 25 5 25 25 0 20 5 25 24 25 30 0 40 13 31 40 -4 13 -15 20 -31 20 -20
0 -24 -5 -24 -31z"/>
<path d="M820 1239 c0 -24 4 -29 25 -29 21 0 25 5 25 28 0 22 -5 27 -25 28
-21 2 -25 -2 -25 -27z"/>
<path d="M1888 1210 c4 -45 6 -50 28 -50 19 0 24 5 24 25 0 20 5 25 25 25 20
0 25 5 25 25 0 23 -3 25 -52 25 l-53 0 3 -50z"/>
<path d="M877 1203 c-4 -3 -7 -15 -7 -25 0 -13 8 -18 30 -18 27 0 30 -3 30
-30 0 -16 4 -30 9 -30 23 0 41 14 41 32 0 14 5 18 16 14 9 -3 18 -6 20 -6 2 0
4 -7 4 -15 0 -8 -9 -15 -20 -15 -16 0 -20 -7 -20 -30 0 -25 4 -30 25 -30 20 0
25 -5 25 -25 0 -21 5 -25 30 -25 27 0 30 -3 30 -31 0 -30 2 -31 31 -25 17 3
40 6 50 6 14 0 19 7 19 25 0 25 1 25 85 25 l85 0 -6 -25 c-5 -21 -3 -25 15
-25 32 0 36 3 33 28 -2 19 2 22 28 22 25 0 30 4 30 25 0 20 5 25 25 25 20 0
25 5 25 24 0 19 6 25 28 28 21 2 28 9 30 31 3 24 0 27 -27 27 -26 0 -31 4 -31
25 0 24 -3 25 -53 25 -49 0 -54 -2 -53 -22 l1 -23 -237 -3 -238 -2 0 25 c0 20
-5 25 -23 25 -13 0 -27 -3 -30 -7z m633 -74 c0 -28 -3 -31 -25 -27 -22 5 -25
2 -25 -23 l0 -29 -135 0 -135 0 0 -25 c0 -23 -3 -25 -50 -25 -47 0 -50 2 -50
25 0 21 -5 25 -30 25 -26 0 -30 3 -30 29 l0 29 191 -1 191 -2 -4 28 c-4 27 -4
27 49 27 53 0 53 0 53 -31z"/>
<path d="M1830 1105 c0 -52 -1 -55 -25 -55 -20 0 -25 -5 -25 -25 0 -20 -5 -25
-25 -25 -21 0 -25 -5 -25 -30 0 -23 4 -30 20 -30 11 0 20 -4 20 -10 0 -12 -37
-13 -42 -1 -1 4 -27 10 -55 13 -53 5 -53 5 -53 -23 0 -28 -1 -29 -55 -29 -52
0 -55 -1 -55 -25 l0 -25 -105 0 -105 0 0 25 c0 21 5 25 29 25 25 0 28 3 23 25
-4 24 -7 25 -83 25 -78 0 -79 0 -79 -25 0 -21 5 -25 30 -25 30 0 30 -1 30 -52
l0 -53 130 0 130 0 0 28 c0 26 2 27 55 27 52 0 55 1 55 25 l0 25 135 0 135 0
0 25 c0 24 -3 25 -55 25 -54 0 -55 0 -55 30 0 25 4 30 25 30 20 0 25 5 25 25
0 25 1 25 80 25 79 0 80 0 80 -25 0 -24 -3 -25 -56 -25 -53 0 -55 -1 -48 -22
8 -28 1 -24 57 -32 l47 -7 0 30 c0 28 3 31 31 31 l30 0 -2 -107 -2 -107 52 0
c49 -1 51 0 51 26 0 25 4 28 31 28 28 0 31 2 25 25 -6 23 -3 25 24 25 27 0 30
3 30 30 0 25 -4 30 -24 30 -19 0 -25 -6 -28 -27 -2 -22 -9 -29 -30 -31 -22 -3
-28 -9 -28 -28 0 -19 -5 -24 -25 -24 l-25 0 0 105 0 105 25 0 c20 0 25 5 25
25 0 14 -4 25 -9 25 -5 0 -16 3 -25 6 -13 5 -16 -1 -16 -25 0 -31 0 -31 -55
-31 -52 0 -55 1 -55 25 0 24 -3 25 -55 25 -54 0 -55 0 -55 30 0 25 -4 30 -25
30 -24 0 -25 -3 -25 -55z"/>
<path d="M2150 1129 c0 -27 3 -30 28 -27 21 2 28 9 30 31 3 24 0 27 -27 27
-28 0 -31 -3 -31 -31z"/>
<path d="M2209 1008 c5 -38 6 -39 9 -13 2 17 8 36 14 43 8 9 5 12 -9 12 -16 0
-18 -6 -14 -42z"/>
<path d="M1450 926 c0 -8 -12 -19 -27 -24 l-28 -10 33 -1 c28 -1 32 2 32 24 0
14 -2 25 -5 25 -3 0 -5 -6 -5 -14z"/>
</g>
</svg>
